<svg xmlns="http://www.w3.org/2000/svg" xmlns:xlink="http://www.w3.org/1999/xlink" width="64" zoomAndPan="magnify" viewBox="0 0 48 48" height="64" preserveAspectRatio="xMidYMid meet" version="1.0"><defs><clipPath id="c0f1fe3410"><path d="M 6.128906 2.265625 L 42 2.265625 L 42 38 L 6.128906 38 Z M 6.128906 2.265625 " clip-rule="nonzero"/></clipPath><clipPath id="cefeeccd3f"><path d="M 9 32 L 26 32 L 26 44.878906 L 9 44.878906 Z M 9 32 " clip-rule="nonzero"/></clipPath></defs><g clip-path="url(#c0f1fe3410)"><path fill="#fffffe" d="M 10.15625 2.339844 C 9.796875 2.449219 9.738281 2.523438 9.148438 3.589844 C 6.90625 7.605469 5.890625 11.890625 6.171875 16.082031 C 6.566406 21.726562 8.824219 26.742188 12.847656 30.875 C 16.5 34.625 21.066406 36.96875 26.351562 37.800781 C 27.507812 37.984375 30.859375 38.058594 32.023438 37.933594 C 34.867188 37.609375 37.035156 37 39.308594 35.882812 C 40.742188 35.175781 41.59375 34.640625 41.742188 34.34375 C 42.199219 33.433594 41.34375 31.417969 39.292969 28.617188 C 38.175781 27.082031 35.417969 23.714844 35.285156 23.714844 C 35.25 23.714844 35.191406 24.050781 35.140625 24.449219 L 35.058594 25.183594 L 36.21875 26.574219 C 38.910156 29.800781 40.625 32.46875 40.640625 33.425781 C 40.640625 33.792969 40.632812 33.800781 40.367188 33.824219 C 39.550781 33.910156 37.332031 32.683594 34.734375 30.726562 C 28.707031 26.191406 18.066406 15.433594 13.414062 9.171875 C 11.40625 6.464844 10.214844 4.199219 10.457031 3.546875 C 10.539062 3.339844 10.933594 3.414062 11.78125 3.824219 C 13.375 4.574219 15.832031 6.40625 18.867188 9.089844 L 20.25 10.324219 L 20.90625 10.199219 C 21.265625 10.132812 21.566406 10.066406 21.582031 10.050781 C 21.609375 10.023438 19.558594 8.15625 18.347656 7.125 C 15.367188 4.558594 12.433594 2.640625 11.03125 2.347656 C 10.53125 2.25 10.480469 2.238281 10.15625 2.339844 Z M 9.421875 8.257812 C 9.882812 8.890625 9.890625 8.972656 9.605469 9.980469 C 8.972656 12.214844 8.722656 14.933594 8.933594 17.214844 C 9.308594 21.273438 10.691406 24.964844 13.140625 28.425781 C 13.765625 29.308594 13.625 29.226562 12.765625 28.21875 C 11.464844 26.675781 10.53125 25.207031 9.75 23.476562 C 8.515625 20.765625 7.964844 18.40625 7.875 15.464844 C 7.796875 13 8.046875 11.175781 8.816406 8.605469 C 8.933594 8.230469 9.058594 7.921875 9.097656 7.921875 C 9.148438 7.921875 9.289062 8.074219 9.421875 8.257812 Z M 9.421875 8.257812 " fill-opacity="1" fill-rule="nonzero"/></g><path fill="#fffffe" d="M 35.683594 4.957031 C 35.066406 5.132812 34.660156 5.382812 34.242188 5.832031 C 33.691406 6.421875 33.492188 6.890625 33.433594 7.757812 L 33.390625 8.457031 L 30.933594 8.949219 C 23.972656 10.316406 16.730469 11.765625 16.714844 11.78125 C 16.699219 11.789062 16.855469 11.992188 17.050781 12.214844 L 17.414062 12.632812 L 25.523438 11.023438 C 29.992188 10.140625 33.683594 9.414062 33.726562 9.421875 C 33.773438 9.421875 33.859375 9.507812 33.917969 9.597656 C 34.015625 9.75 34.015625 9.800781 33.917969 9.882812 C 33.417969 10.332031 31.160156 12.433594 30.558594 13.007812 C 30.148438 13.398438 28.816406 14.640625 27.601562 15.757812 C 25.214844 17.964844 23.742188 19.359375 23.699219 19.425781 C 23.691406 19.449219 23.972656 19.757812 24.332031 20.117188 L 24.984375 20.757812 L 26.441406 19.28125 C 27.25 18.464844 29.257812 16.390625 30.910156 14.675781 C 34.234375 11.222656 34.910156 10.539062 34.96875 10.597656 C 34.992188 10.617188 34.84375 12.039062 34.632812 13.757812 C 34.433594 15.472656 34.148438 17.816406 34.015625 18.964844 C 33.882812 20.109375 33.582031 22.609375 33.351562 24.507812 C 33.125 26.410156 32.933594 28.007812 32.933594 28.058594 C 32.933594 28.109375 33.125 28.300781 33.367188 28.5 C 33.675781 28.75 33.816406 28.816406 33.859375 28.742188 C 33.882812 28.683594 33.976562 28.066406 34.050781 27.382812 C 34.125 26.691406 34.359375 24.742188 34.558594 23.050781 C 34.757812 21.351562 35.160156 18.015625 35.433594 15.632812 C 35.71875 13.25 35.957031 11.222656 35.976562 11.125 C 36.007812 10.964844 36.09375 10.941406 36.640625 10.898438 C 37.808594 10.816406 38.765625 10.164062 39.234375 9.140625 C 39.433594 8.707031 39.46875 8.523438 39.476562 7.882812 C 39.476562 7.199219 39.449219 7.082031 39.199219 6.574219 C 38.699219 5.558594 37.777344 4.949219 36.601562 4.875 C 36.292969 4.855469 35.890625 4.890625 35.683594 4.957031 Z M 36.765625 5.855469 C 36.648438 5.90625 36.417969 6 36.242188 6.074219 C 35.816406 6.25 35.367188 6.707031 35.132812 7.207031 C 34.890625 7.714844 34.859375 8.664062 35.058594 9.148438 C 35.175781 9.414062 35.175781 9.433594 35.050781 9.332031 C 34.808594 9.132812 34.5 8.398438 34.457031 7.921875 C 34.390625 7.242188 34.601562 6.683594 35.058594 6.273438 C 35.5 5.882812 35.808594 5.773438 36.476562 5.773438 C 36.902344 5.765625 36.941406 5.78125 36.765625 5.855469 Z M 36.765625 5.855469 " fill-opacity="1" fill-rule="nonzero"/><path fill="#fffffe" d="M 23.265625 12.164062 C 22.925781 12.230469 22.625 12.300781 22.609375 12.316406 C 22.566406 12.339844 26.109375 15.800781 26.183594 15.800781 C 26.207031 15.800781 26.417969 15.640625 26.640625 15.449219 L 27.058594 15.089844 L 26.101562 14.125 C 25.574219 13.597656 24.859375 12.90625 24.515625 12.605469 L 23.890625 12.039062 Z M 23.265625 12.164062 " fill-opacity="1" fill-rule="nonzero"/><path fill="#fffffe" d="M 29.015625 17.882812 L 28.65625 18.25 L 29.816406 19.472656 C 30.449219 20.148438 31.390625 21.132812 31.890625 21.675781 C 32.917969 22.765625 32.859375 22.765625 32.964844 21.742188 L 33.023438 21.191406 L 32.339844 20.457031 C 30.625 18.625 29.542969 17.507812 29.464844 17.507812 C 29.417969 17.507812 29.214844 17.675781 29.015625 17.882812 Z M 29.015625 17.882812 " fill-opacity="1" fill-rule="nonzero"/><g clip-path="url(#cefeeccd3f)"><path fill="#fffffe" d="M 13.441406 33.117188 C 13.316406 33.441406 12.664062 35.515625 11.589844 39.050781 C 11.03125 40.882812 10.414062 42.910156 10.222656 43.550781 L 9.863281 44.71875 L 17.582031 44.742188 C 21.824219 44.75 25.316406 44.742188 25.332031 44.71875 C 25.359375 44.691406 25.183594 43.96875 24.949219 43.109375 C 24.707031 42.25 24.316406 40.816406 24.082031 39.910156 L 23.648438 38.277344 L 22.566406 37.925781 C 19.65625 36.992188 17.089844 35.660156 14.765625 33.882812 C 14.324219 33.542969 13.890625 33.191406 13.808594 33.09375 C 13.605469 32.875 13.53125 32.882812 13.441406 33.117188 Z M 14.433594 35.46875 L 14.65625 35.683594 L 13.789062 39.109375 C 13.316406 40.992188 12.941406 42.542969 12.949219 42.558594 C 12.964844 42.578125 13.691406 42.675781 14.558594 42.792969 C 16.523438 43.058594 18.949219 43.433594 18.90625 43.476562 C 18.867188 43.519531 11.671875 43.535156 11.632812 43.492188 C 11.597656 43.453125 12.339844 40.992188 13.339844 37.851562 C 13.757812 36.550781 14.097656 35.433594 14.097656 35.375 C 14.097656 35.210938 14.183594 35.234375 14.433594 35.46875 Z M 14.433594 35.46875 " fill-opacity="1" fill-rule="nonzero"/></g></svg>